<?xml version="1.0" encoding="UTF-8" standalone="no"?>
<!DOCTYPE svg PUBLIC "-//W3C//DTD SVG 1.1//EN" "http://www.w3.org/Graphics/SVG/1.1/DTD/svg11.dtd">
<svg width="100%" height="100%" viewBox="0 0 151 86" version="1.1" xmlns="http://www.w3.org/2000/svg" xml:space="preserve" fill="currentColor">
<path d="M55.453,62.568l6.395,0l4.121,-10.103l0.275,-0.701c0.765,-1.88 2.006,-2.814 3.701,-2.814c0.703,0 1.302,0.227 1.819,0.7c0.503,0.467 0.758,1.023 0.758,1.668c-0,0.536 -0.221,1.346 -0.675,2.437l-3.577,8.813l5.795,0l0.09,-0.096l4.445,-4.558l-1.923,-4.461c-0.317,-0.748 -0.475,-1.325 -0.475,-1.743c-0,-0.797 0.33,-1.51 0.992,-2.149c0.655,-0.638 1.392,-0.961 2.212,-0.961c0.999,0 1.785,0.687 2.357,2.066l1.35,3.24l2.825,-3.185c1.248,-1.414 2.412,-2.114 3.501,-2.114c0.751,0 1.371,0.247 1.874,0.728c0.503,0.494 0.751,1.105 0.751,1.832c0,1.009 -0.654,2.176 -1.977,3.487l-4.273,4.208l1.592,3.706l3.211,0c0.042,-0.11 0.09,-0.226 0.138,-0.35l10.095,-24.751l0.283,-0.673c0.758,-1.86 1.991,-2.786 3.666,-2.786c0.703,-0 1.295,0.226 1.791,0.7c0.49,0.467 0.731,1.023 0.731,1.668c-0,0.501 -0.131,1.064 -0.372,1.688l-0.276,0.68l-9.716,23.824l6.216,0l4.12,-10.103l0.276,-0.701c0.765,-1.88 2.005,-2.814 3.7,-2.814c0.703,0 1.303,0.227 1.82,0.7c0.503,0.467 0.758,1.023 0.758,1.668c-0,0.536 -0.221,1.346 -0.676,2.437l-3.576,8.813l7.614,0l8.731,-21.408c1.061,-2.595 2.336,-4.427 3.831,-5.519c1.496,-1.084 3.487,-1.633 5.989,-1.633l2.853,-0c2.136,-0 3.197,0.727 3.197,2.189c-0,1.044 -0.372,1.854 -1.123,2.437c-0.751,0.577 -1.792,0.865 -3.122,0.865l-0.751,-0c-1.399,-0 -2.508,0.281 -3.308,0.851c-0.813,0.563 -1.495,1.51 -2.039,2.862l-2.35,5.731l10.488,0l-0,0.014c0.875,-0.24 1.791,-0.357 2.749,-0.357c2.185,0 3.942,0.57 5.265,1.709c1.323,1.14 1.991,2.636 1.991,4.496c0,2.238 -0.909,3.899 -2.749,4.983c-1.013,0.611 -2.536,0.92 -4.555,0.92l-4.989,0c0,1.242 0.937,1.86 2.825,1.86l7.422,0c2.102,0 3.149,0.741 3.149,2.217c-0,1.009 -0.365,1.805 -1.11,2.361c-0.744,0.57 -1.784,0.851 -3.114,0.851l-7.077,0c-2.639,0 -4.645,-0.645 -6.016,-1.935c-1.371,-1.297 -2.067,-3.185 -2.067,-5.677c-0,-2.217 0.517,-4.214 1.557,-6.012l-0.937,-0c-0.138,0.007 -0.283,0.007 -0.434,0.007l-4.596,-0l-11.219,27.565c-0.937,2.272 -2.232,3.411 -3.9,3.411c-0.73,0 -1.358,-0.219 -1.854,-0.673c-0.503,-0.453 -0.751,-1.002 -0.751,-1.667c0,-0.488 0.2,-1.277 0.648,-2.368l5.154,-12.651l-30.161,0c-0.979,0 -1.42,-0.233 -1.971,-1.441l-1.543,-3.384l-2.929,3.082l-0.531,0.542c-0.992,1.016 -1.791,1.181 -2.804,1.188l-22.747,0.013c-1.103,0 -1.992,-0.288 -2.681,-0.878c-0.682,-0.584 -1.026,-1.345 -1.026,-2.286c-0,-0.645 0.22,-1.53 0.675,-2.635l2.357,-5.704c0.13,-0.33 0.192,-0.639 0.192,-0.927c0,-1.078 -0.544,-1.613 -1.646,-1.613c-0.855,0 -1.696,0.384 -2.529,1.146c-0.834,0.762 -1.503,1.778 -2.006,3.034l-2.797,6.871c-0.91,2.224 -2.254,3.343 -4.004,3.343c-0.682,-0 -1.261,-0.22 -1.75,-0.673c-0.49,-0.453 -0.724,-0.975 -0.724,-1.599c0,-0.474 0.131,-1.044 0.372,-1.689l0.276,-0.673l2.832,-6.946c0.248,-0.611 0.372,-1.098 0.372,-1.448c0,-0.35 -0.172,-0.68 -0.503,-0.961c-0.331,-0.275 -0.723,-0.405 -1.171,-0.405c-1.799,0 -3.225,1.29 -4.273,3.885l-2.928,7.145c-0.924,2.238 -2.247,3.357 -3.976,3.357c-0.683,-0 -1.275,-0.22 -1.764,-0.666c-0.49,-0.433 -0.731,-0.968 -0.731,-1.606c0,-0.494 0.131,-1.064 0.372,-1.689l0.276,-0.672l4.975,-12.197c0.703,-1.71 1.75,-2.568 3.149,-2.568c1.399,0 2.357,0.68 2.708,2.039c1.124,-0.961 2.047,-1.599 2.757,-1.915c0.71,-0.316 1.578,-0.474 2.611,-0.474c2.233,0 3.908,0.968 5.024,2.918c1.867,-1.95 3.969,-2.918 6.305,-2.918c1.599,0 2.936,0.46 4.011,1.387c1.075,0.92 1.612,2.045 1.612,3.391c0,0.851 -0.179,1.716 -0.544,2.615l-2.681,6.568l0,0.014Zm-14.363,-43.915c-0.596,1.109 -1.37,2.148 -2.32,3.075c-0.53,0.522 -1.095,0.982 -1.688,1.387l-0.889,-1.249c0.531,-0.364 1.034,-0.769 1.502,-1.229c4.417,-4.297 4.493,-11.353 0.179,-15.746c-4.313,-4.399 -11.397,-4.475 -15.807,-0.178c-4.417,4.297 -4.493,11.353 -0.179,15.745c1.261,1.284 2.763,2.204 4.361,2.746l-0.282,1.517c-1.902,-0.611 -3.687,-1.675 -5.182,-3.199c-4.906,-5.003 -4.817,-13.02 0.2,-17.914c5.023,-4.887 13.072,-4.798 17.985,0.199l0,0.007c3.586,3.657 4.503,8.924 2.778,13.405c2.375,1.966 4.369,3.921 5.216,4.784c2.322,2.361 12.761,13.542 8.985,17.221c-0.017,0.013 -0.033,0.026 -0.051,0.039l0.006,0.006l-0.031,0.031c-0.348,0.302 -0.774,0.498 -1.266,0.594c-0.172,0.046 -0.347,0.079 -0.525,0.099l-0.021,0.014l-25.338,3.541l-15.029,14.634c-0.241,0.433 -1.185,1.75 -1.281,2.231c0.992,1.174 1.929,2.203 2.777,3.555c0.723,1.147 1.412,2.911 0.53,3.721c-0.882,0.81 -2.97,-0.145 -4.451,-0.934c-2.15,-1.146 -4.521,-2.759 -6.492,-4.853c-1.571,-1.674 -2.997,-3.507 -4.031,-5.676c-0.71,-1.483 -1.116,-3.507 -0.275,-4.304c0.84,-0.796 2.384,-0.034 3.555,0.659c1.303,0.762 2.522,1.888 3.673,2.904c0.489,-0.09 1.771,-0.954 2.212,-1.181l15.029,-14.634l4.176,-25.526c0.103,-0.556 0.352,-1.071 0.765,-1.469c0.669,-0.651 1.565,-0.852 2.598,-0.73l7.008,-1.961c0.558,1.229 0.613,3.59 -0.062,5.347l-0.158,-0.044c0.064,0.047 0.128,0.093 0.192,0.14c-0.144,0.508 -0.33,1.002 -0.572,1.483c-3.81,-2.835 -6.891,-4.153 -7.931,-3.144c-0.015,0.014 -0.029,0.029 -0.043,0.044l0.064,0.066c-0,0 0.765,-0.748 -0.035,0.034c-0.799,0.776 2.674,8.443 9.151,15.046c5.52,5.627 10.695,9.225 13.576,9.546c0.159,-0.021 0.254,-0.032 0.275,-0.033c0.393,-0.014 0.71,-0.116 0.93,-0.336c1.633,-1.586 -2.398,-8.333 -9.006,-15.059c-1.612,-1.645 -3.23,-3.129 -4.778,-4.421Zm-26.045,48.253c0.069,0.234 0.303,0.172 -0.028,0.494c-0.324,0.323 -4.851,-1.86 -8.813,-5.806c-3.956,-3.947 -5.851,-8.175 -5.527,-8.498c0.324,-0.323 0.262,-0.096 0.496,-0.027c-0.434,0.652 1.792,4.365 5.555,8.113c3.762,3.754 7.655,6.15 8.31,5.717l0.007,0.007Zm-7.579,-10.195c-2.95,-2.683 -5.192,-4.402 -5.693,-3.972c-0.503,0.433 1.571,3.961 5.251,7.708c3.68,3.748 7.725,6.171 8.076,5.869c0.351,-0.309 -1.364,-2.897 -4.004,-5.917l0.001,-0.003c-0.966,0.422 -2.144,-0.084 -2.895,-0.91c-0.746,-0.813 -1.263,-1.686 -0.736,-2.775Zm22.551,-38.567l-3.644,22.268l-15.538,15.134c-0.943,0.53 -2.333,1.145 -3.264,1.199c0.089,1.254 2.259,3.331 3.533,3.554c0.096,-0.918 0.839,-2.157 1.377,-3.071l15.546,-15.135c0,0 14.879,-2.104 22.093,-3.106c-3.297,-1.487 -7.399,-4.584 -11.412,-8.686c-4.13,-4.218 -7.262,-8.699 -8.691,-12.157Zm112.099,35.542c-1.528,0.007 -2.721,0.837 -3.607,2.492l2.743,-0c1.784,-0 2.653,-0.391 2.604,-1.174c-0.048,-0.878 -0.62,-1.318 -1.722,-1.318l-0.018,0Zm-70.552,-12.67c0.965,-0 1.785,0.343 2.46,1.009c0.675,0.672 1.013,1.489 1.013,2.45c0,0.961 -0.345,1.778 -1.013,2.45c-0.668,0.673 -1.495,1.009 -2.46,1.009c-0.965,0 -1.785,-0.343 -2.46,-1.009c-0.675,-0.665 -1.013,-1.489 -1.013,-2.45c0,-0.961 0.345,-1.778 1.013,-2.45c0.675,-0.673 1.495,-1.009 2.46,-1.009Zm41.325,-0c0.964,-0 1.785,0.343 2.46,1.009c0.675,0.672 1.013,1.489 1.013,2.45c-0,0.961 -0.345,1.778 -1.013,2.45c-0.675,0.673 -1.496,1.009 -2.46,1.009c-0.965,0 -1.785,-0.343 -2.46,-1.009c-0.676,-0.672 -1.013,-1.489 -1.013,-2.45c-0,-0.961 0.344,-1.778 1.013,-2.45c0.675,-0.673 1.495,-1.009 2.46,-1.009Zm-83.277,-12.376l-1.412,9.129c-0.317,2.059 1.047,2.842 2.708,2.602l15.125,-2.224c-8.055,-7.201 -13.857,-1.957 -16.421,-9.507Zm26.292,10.629l0.004,-0.004l-0,0.007l-0.004,-0.003Zm-28.559,-22.105l-2.35,4.173c-1.268,-0.474 -2.983,-2.1 -3.755,-3.823l6.753,-3.782c-0.221,1.146 -0.434,2.292 -0.648,3.439l0,-0.007Zm5.093,-3.054l6.139,3.431c-0.413,1.105 -1.716,2.547 -3.19,3.405c-1.613,-2.279 -2.839,-4.517 -2.901,-6.095c-0.007,-0.265 -0.027,-0.51 -0.048,-0.741l-0.001,-0.001l0,-0.006l0.001,0.007Zm-4.321,-0.941l-7.849,2.197c-0.558,-1.229 -0.613,-3.59 0.062,-5.347l8.221,2.292c-0.193,0.282 -0.338,0.577 -0.434,0.865l-0,-0.007Zm1.116,-1.64l-4.217,-7.461c-1.73,0.768 -3.363,2.477 -3.838,3.74l7.566,4.235c0.145,-0.185 0.31,-0.357 0.489,-0.508l0,-0.006Zm1.626,-0.598l3.908,-6.925c1.268,0.473 2.983,2.1 3.755,3.823l-6.753,3.789c-0.262,-0.405 -0.572,-0.618 -0.903,-0.687l-0.007,0Zm-1.364,0.385l-2.315,-8.216c1.233,-0.556 3.604,-0.611 5.368,0.062l-2.178,7.763c-0.296,0.048 -0.592,0.192 -0.875,0.391Z" />
</svg>
